<svg width="37" height="36" viewBox="0 0 37 36" fill="none" xmlns="http://www.w3.org/2000/svg">
<g clip-path="url(#clip0)">
<path d="M14.6814 0.514171C10.6776 0.48668 6.7347 2.25006 4.07156 5.1479C1.44012 7.86753 0.0713281 11.6425 0.279188 15.3456C0.40986 19.4283 2.56112 23.3657 5.87291 25.8693C8.75069 28.0911 12.5379 29.1637 16.1873 28.8024C18.9828 28.6186 21.6218 27.4609 23.8775 25.8789C24.3937 25.7711 24.5771 26.4042 24.9418 26.6201C27.9676 29.5131 30.8919 32.5122 34.014 35.3065C34.8782 35.8626 36.2103 35.2262 36.2504 34.2038C36.3537 33.2909 35.4476 32.7617 34.9198 32.1582C32.0625 29.2749 29.1117 26.4814 26.2166 23.6346C28.1326 21.1684 29.4049 18.1628 29.4018 15.0551C29.4845 12.706 28.9755 10.3338 27.8446 8.25231C25.6552 4.0608 21.2146 1.00057 16.3735 0.580719C15.8113 0.528013 15.2461 0.506607 14.6814 0.514171ZM15.1305 3.46032C19.4693 3.46426 23.5972 6.18728 25.3559 10.0216C26.6516 12.7351 26.7446 15.9709 25.6223 18.7544C24.1144 22.5126 20.4297 25.3903 16.286 25.8411C14.4956 26.0372 12.6496 25.9098 10.9592 25.2706C6.55785 23.8138 3.34488 19.5221 3.29808 14.9971C3.13942 11.4625 4.89405 7.94621 7.76785 5.79818C9.80517 4.25064 12.39 3.36114 14.9854 3.46115C15.0338 3.46115 15.0821 3.46031 15.1305 3.46032V3.46032Z" fill="black"/>
</g>
<defs>
<clipPath id="clip0">
<rect width="36" height="35" fill="white" transform="translate(0.100342 0.512695)"/>
</clipPath>
</defs>
</svg>
